# xmcd CD database file
#
# Track frame offsets:
#	150
#	25933
#	52655
#	85532
#	119003
#	145016
#	159152
#	182500
#	207939
#	227010
#	245114
#	257748
#
# Disc length: 3693 seconds
#
# Revision: 0
# Processed by: cddbd v1.5.2PL0 Copyright (c) Steve Scherf et al.
# Submitted via: CDex 1.70beta2
#
DISCID=940e6b0c
DTITLE=Various Artist - Simply Sax
DYEAR=1900
DGENRE=Jazz
TTITLE0=Body and soul/Al Cohn and Zoot Sims
TTITLE1=One for my baby/Fathead
TTITLE2=The Summer knows - Phil Woods
TTITLE3=You don't Know What Love is/Booker Ervin
TTITLE4=I'll be seeing you//Sonny Stitt
TTITLE5=Erverthing Happens to me/Art Pepper
TTITLE6=Spring Can Really Hang You Up The Most /Housten Person and Ron Carter
TTITLE7=Nerver Never Land&/Bud Shank
TTITLE8=My Foolish Heart/Sadao Watanabe
TTITLE9=All Night Long/Sonny Criss
TTITLE10=The Good Life/Sonny Stitt
TTITLE11=Daydream/Housten Person
EXTD=
EXTT0=
EXTT1=
EXTT2=
EXTT3=
EXTT4=
EXTT5=
EXTT6=
EXTT7=
EXTT8=
EXTT9=
EXTT10=
EXTT11=
PLAYORDER=
